<svg width="21" height="21" viewBox="0 0 21 21" fill="none" xmlns="http://www.w3.org/2000/svg">
<path d="M5.76878 4.20206C6.41798 4.20206 6.94443 3.67561 6.94443 3.02605V1.17564C6.94443 0.52645 6.41798 0 5.76878 0C5.11922 0 4.59277 0.52645 4.59277 1.17564V3.0261C4.59277 3.67561 5.11922 4.20206 5.76878 4.20206Z" fill="white"/>
<path d="M14.4396 4.20206C15.0889 4.20206 15.6153 3.67561 15.6153 3.02605V1.17564C15.6153 0.52645 15.0889 0 14.4396 0C13.7901 0 13.2637 0.52645 13.2637 1.17564V3.0261C13.2637 3.67561 13.7901 4.20206 14.4396 4.20206Z" fill="white"/>
<path d="M17.3762 1.67578H16.6486V3.026C16.6486 4.24439 15.6576 5.23539 14.4396 5.23539C13.2212 5.23539 12.2302 4.24439 12.2302 3.026V1.67578H7.97761V3.026C7.97761 4.24439 6.98665 5.23539 5.76863 5.23539C4.55028 5.23539 3.55924 4.24439 3.55924 3.026V1.67578H2.83167C1.26782 1.67578 0 2.94356 0 4.50745V17.9503C0 19.5141 1.26786 20.782 2.83167 20.782H17.3762C18.94 20.782 20.2078 19.5141 20.2078 17.9503V4.50745C20.2078 2.94361 18.94 1.67578 17.3762 1.67578ZM17.9793 17.4531C17.9793 18.1767 17.3906 18.7653 16.667 18.7653H3.54077C2.81722 18.7653 2.22855 18.1767 2.22855 17.4531V6.93578H17.9793L17.9793 17.4531Z" fill="white"/>
<path d="M9.53242 15.0898H7.45459V17.1677H9.53242V15.0898Z" fill="white"/>
<path d="M9.53242 11.8691H7.45459V13.9469H9.53242V11.8691Z" fill="white"/>
<path d="M6.31168 15.0898H4.23389V17.1677H6.31168V15.0898Z" fill="white"/>
<path d="M6.31168 11.8691H4.23389V13.9469H6.31168V11.8691Z" fill="white"/>
<path d="M15.9738 8.64844H13.896V10.7263H15.9738V8.64844Z" fill="white"/>
<path d="M12.7535 8.64844H10.6753V10.7263H12.7535V8.64844Z" fill="white"/>
<path d="M12.7535 11.8691H10.6753V13.9469H12.7535V11.8691Z" fill="white"/>
<path d="M15.9738 15.0898H13.896V17.1677H15.9738V15.0898Z" fill="white"/>
<path d="M15.9738 11.8691H13.896V13.9469H15.9738V11.8691Z" fill="white"/>
<path d="M12.7535 15.0898H10.6753V17.1677H12.7535V15.0898Z" fill="white"/>
<path d="M9.53242 8.64844H7.45459V10.7263H9.53242V8.64844Z" fill="white"/>
<path d="M6.31168 8.64844H4.23389V10.7263H6.31168V8.64844Z" fill="white"/>
</svg>
