<svg width="20" height="18" viewBox="0 0 20 18" fill="none" xmlns="http://www.w3.org/2000/svg">
<path d="M19.2536 5.86484L18.5952 5.20672C18.196 4.80722 17.5483 4.80757 17.1491 5.20672L16.5332 5.82295L18.6374 7.92714L19.2536 7.3113C19.6528 6.9118 19.6528 6.26434 19.2536 5.86484Z" fill="white"/>
<path d="M0.70551 5.67659H2.47696C2.86646 5.67659 3.18247 5.36061 3.18247 4.97046C3.18247 4.58063 2.86646 4.26465 2.47696 4.26465H0.70551C0.315979 4.26465 0 4.58063 0 4.97046C0 5.36061 0.315979 5.67659 0.70551 5.67659Z" fill="white"/>
<path d="M2.19277 6.41504H0.87207V10.8663H2.19277V6.41504Z" fill="white"/>
<path d="M3.18247 12.3107C3.18247 11.9208 2.86646 11.6045 2.47696 11.6045H0.70551C0.315979 11.6045 0 11.9208 0 12.3107C0 12.7005 0.315979 13.0165 0.70551 13.0165H2.47696C2.86646 13.0165 3.18247 12.7005 3.18247 12.3107Z" fill="white"/>
<path d="M11.2742 4.60938H5.33105V5.59989H11.2742V4.60938Z" fill="white"/>
<path d="M11.2742 8.24121H5.33105V9.23177H11.2742V8.24121Z" fill="white"/>
<path d="M8.96302 11.873H5.33105V12.8636H8.96302V11.873Z" fill="white"/>
<path d="M2.19277 1.59639C2.19308 1.44451 2.31658 1.32101 2.46831 1.3207H12.5367C12.8736 1.32101 13.1721 1.45513 13.3935 1.67537C13.6137 1.89687 13.748 2.19547 13.7483 2.53211V7.58051L15.069 6.25981V2.53211C15.0685 1.13335 13.9355 0.000305515 12.5367 0H2.46831C1.58629 0.000649219 0.872567 0.714523 0.87207 1.59639V3.52522H2.19277V1.59639Z" fill="white"/>
<path d="M13.7483 14.7479C13.748 15.0845 13.6137 15.3831 13.3934 15.6043C13.1721 15.8248 12.8735 15.959 12.5367 15.9593H2.46831C2.31658 15.959 2.19312 15.8355 2.19277 15.6836V13.7548H0.87207V15.6836C0.872567 16.5655 1.58629 17.2794 2.46831 17.28H12.5367C13.9355 17.2797 15.0685 16.1466 15.069 14.7479V12.5225L13.7483 13.8432V14.7479H13.7483Z" fill="white"/>
<path d="M10.7622 11.5936V13.6978H12.8665L18.0635 8.50072L15.9593 6.39648L10.7622 11.5936Z" fill="white"/>
</svg>
